<svg xmlns="http://www.w3.org/2000/svg" version="1.1" xmlns:xlink="http://www.w3.org/1999/xlink" viewBox="0 0 6.769862345845412 1.909914758713219"><g transform="matrix(0.7253126801418571,0,0,0.7253126801418571,1.192112354908641,0.6922757505430558)"><g transform="matrix(1,0,0,1,0,0)" clip-path="url(#SvgjsClipPath13875)"><g clip-path="url(#SvgjsClipPath1387345bdd591-0f65-42c7-a906-422218f1c5bd)"><path d=" M 5.779016364453692 0.2789331037346221 C 5.649728378375755 0.278933074617015 5.54489542528373 0.3836956700223991 5.544808654823281 0.5129836269827344 C 5.544805507325868 0.5214391438304518 5.545277811951816 0.5298881488056533 5.54622333226401 0.5382906345334904 C 5.563014305307414 0.6938809601566291 5.455530788383011 0.8355606441076567 5.301169762254727 0.8613086501646129 C 5.252492233850544 0.8694651341770204 5.203241251887017 0.8737226897149563 5.15388612203748 0.8740407471310986 C 5.295915693851011 0.9570056302579201 5.466005299786765 0.9773108373442642 5.623573770321036 0.9301118098619866 C 5.7811422408553055 0.8829127823797088 5.91205852968252 0.7724424207350172 5.985087711651998 0.6250575175642686 C 6.024237122702427 0.5524369021871812 6.022349211260853 0.46458690714958917 5.980116125954264 0.39371521555958333 C 5.937883040647673 0.3228435239695777 5.861517356997099 0.2793755104619874 5.779016364453692 0.27924747649922665 Z" fill="#ffc632" transform="matrix(1,0,0,1,0,0)" fill-rule="evenodd"></path></g><g clip-path="url(#SvgjsClipPath1387345bdd591-0f65-42c7-a906-422218f1c5bd)"><path d=" M 5.218175352399117 0.12143234866772573 C 5.282930233099534 0.23341477598865984 5.426168500064032 0.2717570429315139 5.53820682676658 0.2070989270224748 C 5.545513066313102 0.2028556031749465 5.552595840805118 0.19823868350607793 5.559426988377391 0.1932665253798726 C 5.685775065934458 0.10082424191662975 5.862304497024569 0.12302833442093258 5.961824127071258 0.2438805404812111 C 5.993147051706206 0.2819975112066574 6.021423025581105 0.3225193994177106 6.046390400749892 0.3650712412362773 C 6.0472639518500015 0.2004772026171825 5.979713382523899 0.04291911089374306 5.859891075424453 -0.069928464896926 C 5.740068768325003 -0.182776040687595 5.578747308344109 -0.2407675765652152 5.414501143894664 -0.23003640216019777 C 5.331942873139345 -0.22779255413625152 5.256669160575374 -0.18223236484692956 5.216393610275598 -0.11012977840153593 C 5.176118059975822 -0.03802719195614232 5.176795057675096 0.0499580586564321 5.218175352399117 0.12143234866772573 Z" fill="#114b1e" transform="matrix(1,0,0,1,0,0)" fill-rule="evenodd"></path></g><g clip-path="url(#SvgjsClipPath1387345bdd591-0f65-42c7-a906-422218f1c5bd)"><path d=" M 5.362158078588014 0.6858886475152552 C 5.39323886321733 0.6320741653397431 5.401657654064149 0.5681133345884296 5.3855607908350445 0.5080891339758771 C 5.369463927605942 0.44806493336332465 5.330171265500914 0.3968990207415336 5.276334313850962 0.3658571731477894 C 5.2689465538827545 0.36161314082562745 5.261401607532243 0.3578406676503725 5.253856661181734 0.35438256723972206 C 5.110718846014334 0.29118020531626165 5.041762279843268 0.1272704475276386 5.096670278879442 -0.01924946349282522 C 5.114010311542232 -0.0655517898541155 5.135035899478526 -0.11038885612825777 5.159544831800359 -0.15332944759667913 C 5.01670734561437 -0.0717202460745463 4.914134714176478 0.06549732190484608 4.876293364460344 0.22559304790861545 C 4.83845201474421 0.385688773912385 4.8687346888408225 0.5543089545902363 4.959918126276449 0.6912329845135333 C 5.003170072148246 0.761418877010774 5.080118198920079 0.8037174464104647 5.162553571820196 0.802622173773261 C 5.244988944720311 0.8015269011360576 5.320786112633283 0.7571988905408674 5.362158078588014 0.6858886475152552 Z" fill="#23953c" transform="matrix(1,0,0,1,0,0)" fill-rule="evenodd"></path></g></g><g><path d=" M 0.39582917675354923 0.724326586327371 Q 0.23056029367603642 0.724326586327371 0.14129469324836744 0.6360811641903039 Q 0.05202909282069848 0.5478357420532369 0.05202909282069848 0.36216329316368545 Q 0.05202909282069848 0.23872172000085184 0.09487658102597958 0.15863772418860023 Q 0.13772406923126068 0.07855372837634866 0.21933833247941517 0.03927686418817433 Q 0.30095259572756966 0 0.41521256427498593 0 Q 0.4835645097453153 0 0.5437550288908293 0.015302674359028878 Q 0.6039455480363431 0.030605348718057868 0.650363660258731 0.062230875726717705 Q 0.6967817724811189 0.09385640273537765 0.7227963188914681 0.1412946932483674 Q 0.7488108653018174 0.18873298376135716 0.7488108653018174 0.2540243943598808 L 0.5947639434209258 0.2540243943598808 Q 0.5947639434209258 0.22239886735122094 0.5809915364977998 0.19791458837677456 Q 0.5672191295746737 0.1734303094023283 0.5427348506002273 0.15710745675269733 Q 0.5182505716257809 0.14078460410306648 0.4866250446171211 0.13262317777825094 Q 0.45499951760846125 0.12446175145343552 0.4203134557279956 0.12446175145343552 Q 0.3672641846166952 0.12446175145343552 0.32747723128321987 0.1382341583765616 Q 0.28769027794974456 0.1520065652996877 0.26167573153939533 0.1800614682912408 Q 0.23566118512904607 0.20811637128279392 0.22239886735122097 0.24994368119747307 Q 0.20913654957339586 0.2917709911121522 0.20913654957339586 0.3468606188046565 L 0.20913654957339586 0.37746596752271444 Q 0.20913654957339586 0.4539793393178593 0.23158047196663833 0.5029478972667519 Q 0.25402439435988083 0.5519164552156446 0.2989122391463658 0.57589064504479 Q 0.3438000839328508 0.5998648348739354 0.41011167282197625 0.5998648348739354 Q 0.46520130051448055 0.5998648348739354 0.5075386995744607 0.5830318930790035 Q 0.5498760986344409 0.5661989512840717 0.5738502884635862 0.5345734242754119 Q 0.5978244782927316 0.5029478972667519 0.5978244782927316 0.4570398741896651 L 0.5978244782927316 0.44989862615545156 L 0.3886879287193357 0.44989862615545156 L 0.3886879287193357 0.3335983010268314 L 0.7488108653018174 0.3335983010268314 L 0.7488108653018174 0.7120844468401478 L 0.6488333928228281 0.7120844468401478 L 0.635571075045003 0.636591253335605 Q 0.6049657263269451 0.666176423763061 0.5697695753011784 0.6855598112844976 Q 0.5345734242754119 0.7049431988059343 0.49172593607013076 0.7146348925666527 Q 0.44887844786484965 0.724326586327371 0.39582917675354923 0.724326586327371 M 0.8855167487782001 0.7120844468401478 L 0.8855167487782001 0.17547066598353211 L 1.002837252197422 0.17547066598353211 L 1.0140592133940434 0.25912528581289046 L 1.0212004614282568 0.25912528581289046 Q 1.0314022443342763 0.23260065025724025 1.0477250969839071 0.21066681700929868 Q 1.064047949633538 0.18873298376135716 1.0885322286079844 0.17547066598353211 Q 1.1130165075824308 0.16220834820570695 1.1456622128816925 0.16220834820570695 Q 1.1630052438219254 0.16220834820570695 1.1772877398903523 0.1657789722228138 Q 1.1915702359587794 0.16934959623992052 1.1987114839929929 0.17241013111172632 L 1.1987114839929929 0.3009525957275696 L 1.1548438174971098 0.3009525957275696 Q 1.12321829048845 0.3009525957275696 1.0992441006593046 0.309624111197686 Q 1.0752699108301593 0.3182956266678024 1.0589470581805283 0.3366588358986372 Q 1.0426242055308974 0.35502204512947194 1.034972868351383 0.38154668068512215 Q 1.0273215311718684 0.40807131624077236 1.0273215311718684 0.44377755641183997 L 1.0273215311718684 0.7120844468401478 L 0.8855167487782001 0.7120844468401478 M 1.5088407029966702 0.724326586327371 Q 1.420085191714302 0.724326586327371 1.3598946725687882 0.6942313267546141 Q 1.2997041534232743 0.664136067181857 1.2690988047052163 0.6019051914551392 Q 1.2384934559871583 0.5396743157284215 1.2384934559871583 0.44377755641183997 Q 1.2384934559871583 0.3468606188046565 1.2690988047052163 0.2851398322232397 Q 1.2997041534232743 0.22341904564182286 1.3593845834234872 0.19332378606906586 Q 1.4190650134237002 0.16322852649630892 1.5057801681248644 0.16322852649630892 Q 1.5873944313730188 0.16322852649630892 1.643504237356125 0.192303607778464 Q 1.6996140433392313 0.22137868906061897 1.7281790354760853 0.2820792973514339 Q 1.7567440276129394 0.3427799056422488 1.7567440276129394 0.4386766649588303 L 1.7567440276129394 0.47540308342049986 L 1.3823385949620306 0.47540308342049986 Q 1.3843789515432345 0.5223312847881887 1.3971311801757587 0.5549769900874504 Q 1.4098834088082828 0.5876226953867122 1.436918133509234 0.6034354588910422 Q 1.463952858210185 0.6192482223953721 1.5088407029966702 0.6192482223953721 Q 1.5333249819711166 0.6192482223953721 1.5532184586378541 0.6131271526517605 Q 1.573111935304592 0.607006082908149 1.5873944313730188 0.5947639434209258 Q 1.6016769274414457 0.5825218039337026 1.6098383537662613 0.5641585947028678 Q 1.6179997800910768 0.5457953854720331 1.6179997800910768 0.5223312847881887 L 1.7567440276129394 0.5223312847881887 Q 1.7567440276129394 0.5733401993182852 1.7383808183821046 0.6110867960705566 Q 1.7200176091512698 0.648833392822828 1.687371903852008 0.6738277609425755 Q 1.6547261985527464 0.6988221290623228 1.6093282646209603 0.7115743576948469 Q 1.5639303306891743 0.724326586327371 1.5088407029966702 0.724326586327371 M 1.3843789515432345 0.38562739384752986 L 1.6108585320568634 0.38562739384752986 Q 1.6108585320568634 0.35502204512947194 1.6032071948773488 0.3325781227362295 Q 1.5955558576978341 0.310134200342987 1.582293539920009 0.29585170427456 Q 1.569031222142184 0.2815692082061329 1.5501579237660483 0.2749380493172204 Q 1.5312846253899126 0.2683068904283078 1.507820524706068 0.2683068904283078 Q 1.4690537496631948 0.2683068904283078 1.4430392032528456 0.281059119060832 Q 1.4170246568424965 0.2938113476933561 1.4032522499193703 0.3198258941037053 Q 1.3894798429962443 0.3458404405140546 1.3843789515432345 0.38562739384752986 M 2.106649241003611 0.724326586327371 Q 2.017893729721243 0.724326586327371 1.957703210575729 0.6942313267546141 Q 1.8975126914302152 0.664136067181857 1.8669073427121572 0.6019051914551392 Q 1.8363019939940992 0.5396743157284215 1.8363019939940992 0.44377755641183997 Q 1.8363019939940992 0.3468606188046565 1.8669073427121572 0.2851398322232397 Q 1.8975126914302152 0.22341904564182286 1.9571931214304281 0.19332378606906586 Q 2.016873551430641 0.16322852649630892 2.1035887061318053 0.16322852649630892 Q 2.1852029693799597 0.16322852649630892 2.241312775363066 0.192303607778464 Q 2.297422581346172 0.22137868906061897 2.325987573483026 0.2820792973514339 Q 2.3545525656198802 0.3427799056422488 2.3545525656198802 0.4386766649588303 L 2.3545525656198802 0.47540308342049986 L 1.9801471329689715 0.47540308342049986 Q 1.9821874895501754 0.5223312847881887 1.9949397181826996 0.5549769900874504 Q 2.007691946815224 0.5876226953867122 2.0347266715161747 0.6034354588910422 Q 2.061761396217126 0.6192482223953721 2.106649241003611 0.6192482223953721 Q 2.1311335199780572 0.6192482223953721 2.151026996644795 0.6131271526517605 Q 2.170920473311533 0.607006082908149 2.1852029693799597 0.5947639434209258 Q 2.1994854654483866 0.5825218039337026 2.2076468917732024 0.5641585947028678 Q 2.2158083180980177 0.5457953854720331 2.2158083180980177 0.5223312847881887 L 2.3545525656198802 0.5223312847881887 Q 2.3545525656198802 0.5733401993182852 2.3361893563890455 0.6110867960705566 Q 2.3178261471582107 0.648833392822828 2.285180441858949 0.6738277609425755 Q 2.2525347365596873 0.6988221290623228 2.2071368026279012 0.7115743576948469 Q 2.161738868696115 0.724326586327371 2.106649241003611 0.724326586327371 M 1.9821874895501754 0.38562739384752986 L 2.2086670700638042 0.38562739384752986 Q 2.2086670700638042 0.35502204512947194 2.2010157328842896 0.3325781227362295 Q 2.193364395704775 0.310134200342987 2.18010207792695 0.29585170427456 Q 2.166839760149125 0.2815692082061329 2.147966461772989 0.2749380493172204 Q 2.1290931633968535 0.2683068904283078 2.105629062713009 0.2683068904283078 Q 2.0668622876701357 0.2683068904283078 2.0408477412597863 0.281059119060832 Q 2.0148331948494373 0.2938113476933561 2.001060787926311 0.3198258941037053 Q 1.9872883810031852 0.3458404405140546 1.9821874895501754 0.38562739384752986 M 2.46063516755669 0.7120844468401478 L 2.46063516755669 0.17547066598353211 L 2.5779556709759124 0.17547066598353211 L 2.5891776321725337 0.24892350290687115 L 2.596318880206747 0.24892350290687115 Q 2.614682089437582 0.22239886735122094 2.6406966358479314 0.20301547982978418 Q 2.6667111822582803 0.18363209230834754 2.6993568875575424 0.1734303094023283 Q 2.732002592856804 0.16322852649630892 2.7707693678996774 0.16322852649630892 Q 2.8238186390109776 0.16322852649630892 2.863605592344453 0.18261191401774557 Q 2.9033925456779284 0.20199530153918233 2.92532637892587 0.24382261145386147 Q 2.9472602121738114 0.28564992136854067 2.9472602121738114 0.3529816885482681 L 2.9472602121738114 0.7120844468401478 L 2.8054554297801433 0.7120844468401478 L 2.8054554297801433 0.37542561094151056 Q 2.8054554297801433 0.3499211536764623 2.7993343600365317 0.3320680335909285 Q 2.79321329029292 0.3142149135053947 2.7814812399509976 0.3024828631634725 Q 2.7697491896090756 0.2907508128215503 2.7524061586688426 0.28564992136854067 Q 2.7350631277286097 0.280549029915531 2.7136393836259693 0.280549029915531 Q 2.6820138566173095 0.280549029915531 2.6565093993522613 0.29585170427456 Q 2.631004942087213 0.3111543786335889 2.6167224460187857 0.3376790141892391 Q 2.6024399499503588 0.36420364974488934 2.6024399499503588 0.39888971162535497 L 2.6024399499503588 0.7120844468401478 L 2.46063516755669 0.7120844468401478 M 3.323695540593374 0.724326586327371 Q 3.235960207601608 0.724326586327371 3.174749510165492 0.6942313267546141 Q 3.113538812729376 0.664136067181857 3.081913285720716 0.6013951023098383 Q 3.0502877587120563 0.5386541374378195 3.0502877587120563 0.44377755641183997 Q 3.0502877587120563 0.3468606188046565 3.081913285720716 0.2851398322232397 Q 3.113538812729376 0.22341904564182286 3.174749510165492 0.19332378606906586 Q 3.235960207601608 0.16322852649630892 3.323695540593374 0.16322852649630892 Q 3.4134712301663437 0.16322852649630892 3.474171838457159 0.19332378606906586 Q 3.5348724467479737 0.22341904564182286 3.5664979737566336 0.2851398322232397 Q 3.5981235007652934 0.3468606188046565 3.5981235007652934 0.44377755641183997 Q 3.5981235007652934 0.5386541374378195 3.5664979737566336 0.6013951023098383 Q 3.5348724467479737 0.664136067181857 3.474171838457159 0.6942313267546141 Q 3.4134712301663437 0.724326586327371 3.323695540593374 0.724326586327371 M 3.323695540593374 0.6141473309423624 Q 3.3706237419610625 0.6141473309423624 3.3986786449526156 0.5968043000021296 Q 3.4267335479441687 0.5794612690618968 3.4399958657219942 0.5437550288908292 Q 3.4532581834998193 0.5080487887197616 3.4532581834998193 0.45601969589906316 L 3.4532581834998193 0.4315354169246168 Q 3.4532581834998193 0.3795063241039183 3.4399958657219942 0.3438000839328507 Q 3.4267335479441687 0.3080938437617831 3.3986786449526156 0.29024072367624937 Q 3.3706237419610625 0.27238760359071557 3.323695540593374 0.27238760359071557 Q 3.277787517516287 0.27238760359071557 3.249732614524734 0.29024072367624937 Q 3.221677711533181 0.3080938437617831 3.208415393755356 0.3438000839328507 Q 3.1951530759775304 0.3795063241039183 3.1951530759775304 0.4315354169246168 L 3.1951530759775304 0.45601969589906316 Q 3.1951530759775304 0.5080487887197616 3.208415393755356 0.5437550288908292 Q 3.221677711533181 0.5794612690618968 3.249732614524734 0.5968043000021296 Q 3.277787517516287 0.6141473309423624 3.323695540593374 0.6141473309423624 M 3.704197634425277 0.7120844468401478 L 3.704197634425277 0.17547066598353211 L 3.821518137844499 0.17547066598353211 L 3.8327400990411205 0.25912528581289046 L 3.839881347075334 0.25912528581289046 Q 3.8500831299813534 0.23260065025724025 3.866405982630984 0.21066681700929868 Q 3.882728835280615 0.18873298376135716 3.9072131142550615 0.17547066598353211 Q 3.931697393229508 0.16220834820570695 3.9643430985287695 0.16220834820570695 Q 3.9816861294690025 0.16220834820570695 3.9959686255374294 0.1657789722228138 Q 4.010251121605856 0.16934959623992052 4.01739236964007 0.17241013111172632 L 4.01739236964007 0.3009525957275696 L 3.9735247031441867 0.3009525957275696 Q 3.941899176135527 0.3009525957275696 3.9179249863063816 0.309624111197686 Q 3.8939507964772364 0.3182956266678024 3.8776279438276053 0.3366588358986372 Q 3.8613050911779747 0.35502204512947194 3.85365375399846 0.38154668068512215 Q 3.8460024168189455 0.40807131624077236 3.8460024168189455 0.44377755641183997 L 3.8460024168189455 0.7120844468401478 L 3.704197634425277 0.7120844468401478 M 4.225503759583554 0.724326586327371 Q 4.198979124027904 0.724326586327371 4.168883864455147 0.7182055165837594 Q 4.13878860488239 0.7120844468401478 4.11226396932674 0.6962716833358179 Q 4.085739333771089 0.680458919831488 4.068906391976157 0.650363660258731 Q 4.052073450181226 0.620268400685974 4.052073450181226 0.5733401993182852 Q 4.052073450181226 0.517230393335179 4.076557729155672 0.4805039748735095 Q 4.101042008130118 0.44377755641183997 4.146439942061904 0.42286390145450037 Q 4.1918378759936905 0.40195024649716077 4.25508893001101 0.39378882017234534 Q 4.31833998402833 0.38562739384752986 4.394853355823475 0.38562739384752986 L 4.394853355823475 0.3458404405140546 Q 4.394853355823475 0.3223763398302102 4.38720201864396 0.3050333088899773 Q 4.379550681464446 0.2876902779497445 4.36067738308831 0.2774884950437252 Q 4.341804084712174 0.2672867121377059 4.30813820112231 0.2672867121377059 Q 4.274472317532447 0.2672867121377059 4.253558662575108 0.27544813846252136 Q 4.2326450076177675 0.2836095647873368 4.2239734921476515 0.2963617934198609 Q 4.215301976677535 0.3091140220523851 4.215301976677535 0.324416696411414 L 4.215301976677535 0.3366588358986372 L 4.077577907446274 0.3366588358986372 Q 4.076557729155672 0.33155794444562753 4.076557729155672 0.32696714213791883 Q 4.076557729155672 0.3223763398302102 4.076557729155672 0.3152350917959966 Q 4.076557729155672 0.2683068904283078 4.105122721292526 0.23413091769314315 Q 4.133687713429381 0.1999549449579785 4.1857168062500785 0.1815917357271437 Q 4.237745899070777 0.16322852649630892 4.307118022831709 0.16322852649630892 Q 4.3815910380456495 0.16322852649630892 4.432089863430445 0.18261191401774557 Q 4.482588688815241 0.20199530153918233 4.5096234135161914 0.23974189829145376 Q 4.536658138217143 0.2774884950437252 4.536658138217143 0.3346184793174333 L 4.536658138217143 0.5784410907712949 Q 4.536658138217143 0.5968043000021296 4.547370010268463 0.605475815472246 Q 4.558081882319784 0.6141473309423624 4.571344200097609 0.6141473309423624 L 4.605010083687472 0.6141473309423624 L 4.605010083687472 0.7069835553871382 Q 4.5948083007814535 0.7120844468401478 4.573384556678812 0.7176954274384585 Q 4.551960812576172 0.723306408036769 4.521355463858114 0.723306408036769 Q 4.491770293430658 0.723306408036769 4.468816281892114 0.7146348925666527 Q 4.4458622703535715 0.7059633770965362 4.430559595994542 0.6901506135922063 Q 4.415256921635513 0.6743378500878764 4.409135851891902 0.6518939276946338 L 4.4019946038576885 0.6518939276946338 Q 4.3846515729174556 0.6733176717972744 4.359657204797708 0.6896405244469054 Q 4.3346628366779605 0.7059633770965362 4.301507042233398 0.7151449817119536 Q 4.268351247788835 0.724326586327371 4.225503759583554 0.724326586327371 M 4.2734521392418445 0.6172078658141682 Q 4.302017131378699 0.6172078658141682 4.324461053771941 0.6085363503440518 Q 4.346904976165184 0.5998648348739354 4.362207650524213 0.5850722496602074 Q 4.377510324883242 0.5702796644464794 4.386181840353358 0.5488559203438388 Q 4.394853355823475 0.5274321762411983 4.394853355823475 0.5029478972667519 L 4.394853355823475 0.4733627268392959 Q 4.3377233715497665 0.4733627268392959 4.292835526763281 0.4810140640188104 Q 4.247947681976797 0.4886654011983249 4.221933135566448 0.5070286104291597 Q 4.195918589156098 0.5253918196599945 4.195918589156098 0.5580375249592562 Q 4.195918589156098 0.576400734190091 4.205100193771515 0.5896630519679161 Q 4.214281798386933 0.6029253697457412 4.231624829327166 0.6100666177799547 Q 4.248967860267398 0.6172078658141682 4.2734521392418445 0.6172078658141682" fill="#114b1e" fill-rule="nonzero"></path></g><g></g></g><defs><clipPath id="SvgjsClipPath13875"><path d=" M 4.8597904007498895 -0.2311367068363145 h 1.186757186382302 v 1.1865999999999999 h -1.186757186382302 Z"></path></clipPath><clipPath id="SvgjsClipPath1387345bdd591-0f65-42c7-a906-422218f1c5bd"><path d=" M 4.8597904007498895 -0.2311367068363146 L 6.046547587132192 -0.2311367068363146 L 6.046547587132192 0.9554632931636856 L 4.8597904007498895 0.9554632931636856 Z"></path></clipPath></defs></svg>