<svg xmlns="http://www.w3.org/2000/svg" version="1.1" xmlns:xlink="http://www.w3.org/1999/xlink" xmlns:svgjs="http://svgjs.dev/svgjs" viewBox="0 0 10.306610878969007 2.5963656678356584"><g transform="matrix(0.7071456505236343,0,0,0.7071456505236343,1.8893464014616423,0.9128588153746755)"><g clip-path="url(#SvgjsClipPath96606)"><g clip-path="url(#SvgjsClipPath9660478719178-7e78-4173-bbc4-0566dad9c053)"><path d=" M 7.728936652464815 0.3014038430894991 L 7.932104493024263 0.3014038430894991 L 7.94449773129839 0.3137970813636257 L 7.94449773129839 1.0783176653888367 L 8.70881514748304 1.0783176653888367 L 8.721208385757171 1.0907109036629632 L 8.721208385757171 1.293878744222413 L 8.70881514748304 1.3062719824965394 L 8.001587894495598 1.3062719824965394 C 7.850837356800489 1.3062719824965394 7.762256178316566 1.2671283118820855 7.735844359043838 1.1888409706531773 C 7.722790401875008 1.1489256360261142 7.716540526477852 1.1070995468297748 7.717356085552925 1.0651117557524723 L 7.717356085552925 0.31359391352306587 Z" fill="#1b9235" transform="matrix(1,0,0,1,0,0)" fill-rule="evenodd"></path></g><g clip-path="url(#SvgjsClipPath9660478719178-7e78-4173-bbc4-0566dad9c053)"><path d=" M 9.21896959512782 0.7948985278084038 L 9.015801754568372 0.7948985278084038 L 9.003408516294241 0.7823021216937179 L 9.003408516294241 0.01798470550906628 L 8.24051327499351 0.01798470550906628 L 8.22812003671938 0.005591467234940278 L 8.22812003671938 -0.20326507286017448 L 8.24051327499351 -0.21565831113430103 L 8.947740527980953 -0.21565831113430103 C 9.098626510903108 -0.21565831113430103 9.187275412000544 -0.1765146405198466 9.213687231273271 -0.09822729929093885 C 9.226626390562078 -0.058284903479410066 9.232873369769539 -0.016478196475603196 9.232175504764184 0.025501915609766806 L 9.232175504764184 0.7823021216937184 Z" fill="#ffc632" transform="matrix(1,0,0,1,0,0)" fill-rule="evenodd"></path></g><g clip-path="url(#SvgjsClipPath9660478719178-7e78-4173-bbc4-0566dad9c053)"><path d=" M 8.227510533197709 0.3016070109300584 L 8.720802050076053 0.3016070109300584 L 8.720802050076053 0.7948985278084033 L 8.227510533197709 0.7948985278084033 Z" fill="#1b9235" transform="matrix(1,0,0,1,0,0)" fill-rule="nonzero"></path></g></g><g><path d=" M 0.5595615 1.128897 Q 0.3999195 1.128897 0.28711125 1.0612935000000001 Q 0.174303 0.99369 0.1148445 0.86703525 Q 0.055386 0.7403805 0.055386 0.563634 Q 0.055386 0.3982905 0.10955025 0.2712285 Q 0.1637145 0.14416649999999998 0.2679705 0.07208324999999993 Q 0.3722265 0 0.5220945 0 Q 0.6035445 0 0.67888575 0.022398750000000023 Q 0.754227 0.044797500000000046 0.8153145 0.08552249999999995 Q 0.876402 0.12624749999999996 0.913869 0.18244800000000005 Q 0.9000225000000001 0.20036699999999996 0.86540625 0.23213249999999996 Q 0.83079 0.26389799999999997 0.7892505 0.29729249999999996 Q 0.747711 0.33068700000000006 0.710244 0.35349300000000006 Q 0.6915105 0.3258 0.66585375 0.30217950000000005 Q 0.640197 0.278559 0.6051735 0.2647125 Q 0.57015 0.25086600000000003 0.522909 0.25086600000000003 Q 0.477297 0.25086600000000003 0.4390155 0.27570825 Q 0.400734 0.30055050000000005 0.373041 0.34453350000000005 Q 0.345348 0.38851650000000004 0.33027975 0.44838225 Q 0.3152115 0.508248 0.3152115 0.578295 Q 0.3152115 0.6719625 0.34209 0.74486025 Q 0.36896850000000003 0.817758 0.42354 0.85889025 Q 0.4781115 0.9000225000000001 0.562005 0.9000225000000001 Q 0.614133 0.9000225000000001 0.65037825 0.87925275 Q 0.6866235 0.858483 0.70576425 0.8238667500000001 Q 0.724905 0.7892505000000001 0.724905 0.74934 Q 0.724905 0.7379370000000001 0.72449775 0.7289775000000001 Q 0.7240905 0.720018 0.7224615 0.711873 Q 0.708615 0.7078005 0.679293 0.70332075 Q 0.649971 0.698841 0.61454025 0.69436125 Q 0.5791095 0.6898815 0.5465295 0.68703075 Q 0.5139495000000001 0.68418 0.4927725 0.6833655000000001 Q 0.4927725 0.6605595 0.493587 0.62512875 Q 0.4944015 0.589698 0.49643775 0.55426725 Q 0.49847400000000003 0.5188365 0.5009175 0.496845 Q 0.558747 0.49765950000000003 0.641826 0.50621175 Q 0.724905 0.514764 0.8092057500000001 0.527796 Q 0.8935065 0.540828 0.9537795 0.5563035000000001 Q 0.9619245 0.58644 0.9651825 0.6243142500000001 Q 0.9684405 0.6621885000000001 0.9684405 0.6931395 Q 0.9684405 0.811242 0.92405025 0.91020375 Q 0.87966 1.0091655 0.78884325 1.06903125 Q 0.6980265 1.128897 0.5595615 1.128897 M 1.3309128852539063 0.360009 Q 1.3496463852539062 0.32335650000000005 1.3883351352539062 0.28996200000000005 Q 1.427023885253906 0.25656750000000006 1.480373635253906 0.23539050000000006 Q 1.5337233852539063 0.21421350000000006 1.5939963852539063 0.21421350000000006 Q 1.630648885253906 0.21421350000000006 1.6681158852539062 0.22154399999999996 Q 1.7055828852539063 0.22887449999999998 1.7226873852539062 0.24109199999999997 L 1.6721883852539063 0.500103 Q 1.6542693852539063 0.49277250000000006 1.6257618852539062 0.48381300000000005 Q 1.597254385253906 0.47485350000000004 1.5606018852539063 0.47485350000000004 Q 1.5231348852539062 0.47485350000000004 1.4877041352539062 0.48747825 Q 1.4522733852539063 0.500103 1.4221368852539062 0.522909 Q 1.3920003852539062 0.5457150000000001 1.3691943852539061 0.5774805000000001 Q 1.3773393852539062 0.6247215 1.3875206352539062 0.6980265 Q 1.3977018852539063 0.7713315000000001 1.4066613852539063 0.848709 Q 1.4156208852539063 0.9260865 1.421322385253906 0.9896175 Q 1.427023885253906 1.0531485 1.427023885253906 1.0824705000000001 Q 1.370008885253906 1.089801 1.2950748852539062 1.0922445 Q 1.2201408852539062 1.094688 1.1509083852539062 1.0938735 Q 1.1509083852539062 1.0254555 1.147243135253906 0.938304 Q 1.1435778852539062 0.8511525 1.1370618852539063 0.7562632499999999 Q 1.130545885253906 0.661374 1.1211791352539062 0.56892825 Q 1.1118123852539061 0.47648250000000003 1.1000021352539062 0.39747600000000005 Q 1.088191885253906 0.31846949999999996 1.0751598852539062 0.2630835 Q 1.1142558852539062 0.2516805 1.1614968852539063 0.24190650000000002 Q 1.2087378852539061 0.23213249999999996 1.2470193852539062 0.22602374999999997 Q 1.285300885253906 0.21991499999999997 1.2958893852539062 0.21910050000000003 Q 1.3056633852539061 0.24190650000000002 1.3178808852539061 0.28629675 Q 1.3300983852539061 0.33068700000000006 1.3309128852539063 0.360009 M 2.5763549721679686 0.9440055 Q 2.5535489721679685 0.9716985 2.519339972167969 0.998577 Q 2.4851309721679686 1.0254555 2.4374827221679687 1.04703975 Q 2.3898344721679687 1.068624 2.3287469721679686 1.08124875 Q 2.267659472167969 1.0938735 2.1919109721679684 1.0938735 Q 2.0689214721679687 1.0938735 1.9736249721679686 1.04703975 Q 1.8783284721679685 1.000206 1.8249787221679685 0.90776025 Q 1.7716289721679686 0.8153144999999999 1.7716289721679686 0.677664 Q 1.7716289721679686 0.5400135 1.8270149721679685 0.43779375 Q 1.8824009721679686 0.33557400000000004 1.9817699721679687 0.27896624999999997 Q 2.0811389721679685 0.22235850000000001 2.2139024721679688 0.22235850000000001 Q 2.3816894721679684 0.22235850000000001 2.4782077221679684 0.31561875000000006 Q 2.5747259721679687 0.408879 2.5787984721679686 0.573408 Q 2.5796129721679684 0.6035445 2.5779839721679685 0.6279795 Q 2.5763549721679686 0.6524145 2.5714679721679685 0.6801075000000001 Q 2.5592504721679687 0.679293 2.519339972167969 0.6784785 Q 2.4794294721679684 0.677664 2.4293377221679684 0.67644225 Q 2.3792459721679684 0.6752205 2.3348557221679687 0.6744060000000001 Q 2.2904654721679685 0.6735915 2.2692884721679687 0.6735915 Q 2.198426972167969 0.6735915 2.1320452221679687 0.6801075000000001 Q 2.0656634721679685 0.6866235 2.0208659721679685 0.693954 Q 2.0208659721679685 0.708615 2.0229022221679687 0.72286875 Q 2.0249384721679684 0.7371225 2.0290109721679688 0.7501545000000001 Q 2.0395994721679687 0.783549 2.066070722167969 0.8071695000000001 Q 2.0925419721679686 0.83079 2.1296017221679686 0.84341475 Q 2.1666614721679687 0.8560395000000001 2.2082009721679685 0.8560395000000001 Q 2.2456679721679684 0.8560395000000001 2.2770262221679687 0.84667275 Q 2.3083844721679685 0.837306 2.334448472167969 0.8218305 Q 2.3605124721679687 0.8063549999999999 2.3820967221679687 0.7880287500000001 Q 2.403680972167969 0.7697025 2.4224144721679686 0.7517834999999999 Q 2.4273014721679687 0.7558560000000001 2.4476639721679687 0.7758112500000001 Q 2.4680264721679688 0.7957665 2.4932759721679685 0.82468125 Q 2.5185254721679686 0.853596 2.5413314721679687 0.8853615 Q 2.5641374721679684 0.917127 2.5763549721679686 0.9440055 M 2.0298254721679685 0.5416425 Q 2.0664779721679687 0.535941 2.1202349721679687 0.531054 Q 2.1739919721679684 0.526167 2.2448534721679687 0.526167 Q 2.283134972167969 0.526167 2.3128642221679687 0.5269815 Q 2.3425934721679686 0.527796 2.354810972167969 0.5286105 Q 2.354810972167969 0.511506 2.3499239721679688 0.49114350000000007 Q 2.3434079721679684 0.4634505 2.3242672221679683 0.43820100000000006 Q 2.3051264721679687 0.4129515 2.2753972221679684 0.39747600000000005 Q 2.2456679721679684 0.38200049999999997 2.2041284721679686 0.38200049999999997 Q 2.1520004721679684 0.38200049999999997 2.1133117221679685 0.40480649999999996 Q 2.0746229721679685 0.42761250000000006 2.0534459721679688 0.46426500000000004 Q 2.0322689721679685 0.5009175 2.0298254721679685 0.5416425 M 3.529355765625 0.9440055 Q 3.506549765625 0.9716985 3.472340765625 0.998577 Q 3.438131765625 1.0254555 3.390483515625 1.04703975 Q 3.342835265625 1.068624 3.281747765625 1.08124875 Q 3.220660265625 1.0938735 3.1449117656250003 1.0938735 Q 3.021922265625 1.0938735 2.926625765625 1.04703975 Q 2.831329265625 1.000206 2.7779795156250002 0.90776025 Q 2.724629765625 0.8153144999999999 2.724629765625 0.677664 Q 2.724629765625 0.5400135 2.780015765625 0.43779375 Q 2.835401765625 0.33557400000000004 2.934770765625 0.27896624999999997 Q 3.034139765625 0.22235850000000001 3.1669032656250002 0.22235850000000001 Q 3.334690265625 0.22235850000000001 3.4312085156250003 0.31561875000000006 Q 3.527726765625 0.408879 3.531799265625 0.573408 Q 3.5326137656250003 0.6035445 3.530984765625 0.6279795 Q 3.529355765625 0.6524145 3.524468765625 0.6801075000000001 Q 3.5122512656250002 0.679293 3.472340765625 0.6784785 Q 3.4324302656250003 0.677664 3.3823385156250003 0.67644225 Q 3.3322467656250003 0.6752205 3.287856515625 0.6744060000000001 Q 3.243466265625 0.6735915 3.222289265625 0.6735915 Q 3.151427765625 0.6735915 3.085046015625 0.6801075000000001 Q 3.018664265625 0.6866235 2.973866765625 0.693954 Q 2.973866765625 0.708615 2.975903015625 0.72286875 Q 2.977939265625 0.7371225 2.9820117656250003 0.7501545000000001 Q 2.992600265625 0.783549 3.019071515625 0.8071695000000001 Q 3.045542765625 0.83079 3.082602515625 0.84341475 Q 3.119662265625 0.8560395000000001 3.161201765625 0.8560395000000001 Q 3.198668765625 0.8560395000000001 3.230027015625 0.84667275 Q 3.261385265625 0.837306 3.287449265625 0.8218305 Q 3.313513265625 0.8063549999999999 3.3350975156250002 0.7880287500000001 Q 3.356681765625 0.7697025 3.375415265625 0.7517834999999999 Q 3.380302265625 0.7558560000000001 3.400664765625 0.7758112500000001 Q 3.421027265625 0.7957665 3.446276765625 0.82468125 Q 3.471526265625 0.853596 3.494332265625 0.8853615 Q 3.5171382656250003 0.917127 3.529355765625 0.9440055 M 2.982826265625 0.5416425 Q 3.019478765625 0.535941 3.0732357656250002 0.531054 Q 3.1269927656250003 0.526167 3.197854265625 0.526167 Q 3.236135765625 0.526167 3.265865015625 0.5269815 Q 3.295594265625 0.527796 3.307811765625 0.5286105 Q 3.307811765625 0.511506 3.302924765625 0.49114350000000007 Q 3.2964087656250003 0.4634505 3.2772680156250003 0.43820100000000006 Q 3.258127265625 0.4129515 3.2283980156250003 0.39747600000000005 Q 3.198668765625 0.38200049999999997 3.157129265625 0.38200049999999997 Q 3.105001265625 0.38200049999999997 3.066312515625 0.40480649999999996 Q 3.027623765625 0.42761250000000006 3.0064467656250002 0.46426500000000004 Q 2.985269765625 0.5009175 2.982826265625 0.5416425 M 3.9154208115234375 1.1003895 Q 3.8909858115234375 1.101204 3.8551478115234374 1.10079675 Q 3.8193098115234374 1.1003895 3.7818428115234375 1.099575 Q 3.7517063115234377 1.0987605 3.7126103115234375 1.0971315 Q 3.6735143115234377 1.0955025 3.6580388115234377 1.0938735 Q 3.6653693115234374 1.0254555 3.6706635615234378 0.9391185 Q 3.6759578115234377 0.8527815000000001 3.6792158115234375 0.747711 Q 3.6824738115234377 0.6426405 3.6841028115234375 0.518022 Q 3.6857318115234374 0.3934035 3.6857318115234374 0.2484225 Q 3.7166828115234374 0.24434999999999996 3.7590368115234374 0.24190650000000002 Q 3.8013908115234374 0.23946299999999998 3.8445593115234376 0.23946299999999998 Q 3.874695811523438 0.23946299999999998 3.9027960615234374 0.24068475 Q 3.9308963115234374 0.24190650000000002 3.9528878115234374 0.24597900000000006 Q 3.9528878115234374 0.25330949999999997 3.9532950615234377 0.27570825 Q 3.9537023115234375 0.298107 3.9532950615234377 0.32457824999999996 Q 3.9528878115234374 0.3510495 3.9520733115234377 0.3722265 Q 3.9732503115234374 0.34127549999999995 4.021305811523438 0.30747375 Q 4.069361311523438 0.273672 4.132892311523437 0.2500515 Q 4.1964233115234375 0.22643100000000005 4.264026811523437 0.22643100000000005 Q 4.388645311523438 0.22643100000000005 4.454619811523438 0.27652275000000004 Q 4.520594311523437 0.32661450000000003 4.545029311523438 0.42639075000000004 Q 4.569464311523437 0.526167 4.569464311523437 0.6760349999999999 Q 4.569464311523437 0.728163 4.566613561523438 0.79780275 Q 4.563762811523437 0.8674425 4.558061311523438 0.9440055 Q 4.552359811523438 1.0205685 4.543400311523437 1.0922445 Q 4.527110311523438 1.0938735 4.491679561523438 1.09509525 Q 4.456248811523437 1.096317 4.4171528115234375 1.096317 Q 4.375613311523438 1.096317 4.338146311523437 1.09509525 Q 4.300679311523438 1.0938735 4.282760311523438 1.0922445 Q 4.291719811523437 1.0466325 4.302308311523437 0.9782145 Q 4.312896811523437 0.9097965 4.320227311523437 0.8320117499999999 Q 4.327557811523437 0.754227 4.327557811523437 0.6833655000000001 Q 4.327557811523437 0.6149475 4.316562061523437 0.5644485 Q 4.305566311523438 0.5139495000000001 4.275022561523437 0.48584925 Q 4.244478811523438 0.45774899999999996 4.185020311523438 0.45774899999999996 Q 4.136150311523438 0.45774899999999996 4.091352811523437 0.47485350000000004 Q 4.046555311523438 0.491958 4.009902811523437 0.51680025 Q 3.9732503115234374 0.5416425 3.9471863115234376 0.565263 Q 3.9463718115234374 0.693954 3.9406703115234376 0.79780275 Q 3.9349688115234374 0.9016515 3.9284528115234374 0.97780725 Q 3.9219368115234374 1.053963 3.9154208115234375 1.1003895 M 5.177046313476563 1.10772 Q 4.961203813476563 1.10772 4.852060813476563 0.99328275 Q 4.742917813476563 0.8788455000000001 4.742917813476563 0.6605595 Q 4.742917813476563 0.514764 4.799118313476563 0.41824574999999997 Q 4.855318813476563 0.32172750000000006 4.955095063476563 0.2728575 Q 5.054871313476563 0.2239875 5.186005813476563 0.2239875 Q 5.319583813476563 0.2239875 5.407957063476563 0.28507499999999997 Q 5.496330313476563 0.34616250000000004 5.540313313476563 0.45367650000000004 Q 5.584296313476563 0.5611905 5.584296313476563 0.702099 Q 5.584296313476563 0.8250885 5.537055313476563 0.9163125000000001 Q 5.489814313476563 1.0075365 5.398997563476563 1.05762825 Q 5.308180813476563 1.10772 5.177046313476563 1.10772 M 5.168086813476563 0.8739585000000001 Q 5.212884313476563 0.8739585000000001 5.247500563476563 0.858483 Q 5.282116813476563 0.8430075 5.306144563476563 0.81409275 Q 5.330172313476563 0.785178 5.342389813476563 0.746082 Q 5.3546073134765635 0.706986 5.3546073134765635 0.6605595 Q 5.3546073134765635 0.5880690000000001 5.333837563476563 0.53227575 Q 5.313067813476563 0.47648250000000003 5.272750063476563 0.44512425 Q 5.232432313476563 0.41376599999999997 5.172973813476563 0.41376599999999997 Q 5.108628313476563 0.41376599999999997 5.067903313476563 0.446346 Q 5.027178313476563 0.47892599999999996 5.008037563476563 0.53146125 Q 4.988896813476563 0.5839965 4.988896813476563 0.643455 Q 4.988896813476563 0.7436385000000001 5.0349160634765635 0.8087985 Q 5.080935313476563 0.8739585000000001 5.168086813476563 0.8739585000000001 M 5.934548017089845 0.360009 Q 5.953281517089844 0.32335650000000005 5.991970267089845 0.28996200000000005 Q 6.030659017089844 0.25656750000000006 6.084008767089845 0.23539050000000006 Q 6.137358517089845 0.21421350000000006 6.197631517089844 0.21421350000000006 Q 6.234284017089845 0.21421350000000006 6.271751017089844 0.22154399999999996 Q 6.309218017089845 0.22887449999999998 6.326322517089844 0.24109199999999997 L 6.275823517089845 0.500103 Q 6.257904517089845 0.49277250000000006 6.229397017089845 0.48381300000000005 Q 6.200889517089845 0.47485350000000004 6.164237017089844 0.47485350000000004 Q 6.126770017089845 0.47485350000000004 6.091339267089845 0.48747825 Q 6.055908517089844 0.500103 6.025772017089844 0.522909 Q 5.995635517089845 0.5457150000000001 5.972829517089845 0.5774805000000001 Q 5.9809745170898445 0.6247215 5.991155767089844 0.6980265 Q 6.001337017089845 0.7713315000000001 6.010296517089844 0.848709 Q 6.019256017089845 0.9260865 6.024957517089844 0.9896175 Q 6.030659017089844 1.0531485 6.030659017089844 1.0824705000000001 Q 5.973644017089844 1.089801 5.8987100170898445 1.0922445 Q 5.823776017089845 1.094688 5.754543517089845 1.0938735 Q 5.754543517089845 1.0254555 5.750878267089845 0.938304 Q 5.7472130170898446 0.8511525 5.740697017089844 0.7562632499999999 Q 5.734181017089845 0.661374 5.724814267089845 0.56892825 Q 5.715447517089845 0.47648250000000003 5.703637267089844 0.39747600000000005 Q 5.691827017089844 0.31846949999999996 5.678795017089844 0.2630835 Q 5.717891017089844 0.2516805 5.765132017089845 0.24190650000000002 Q 5.812373017089844 0.23213249999999996 5.850654517089844 0.22602374999999997 Q 5.888936017089844 0.21991499999999997 5.899524517089844 0.21910050000000003 Q 5.909298517089844 0.24190650000000002 5.921516017089845 0.28629675 Q 5.933733517089845 0.33068700000000006 5.934548017089845 0.360009 M 6.75232828857422 1.1036475000000001 Q 6.65214478857422 1.1036475000000001 6.569065788574219 1.07636175 Q 6.48598678857422 1.0490760000000001 6.4367095385742195 0.9875812500000001 Q 6.38743228857422 0.9260865 6.38743228857422 0.824274 Q 6.38743228857422 0.7224615000000001 6.44485453857422 0.66015225 Q 6.502276788574219 0.597843 6.59635153857422 0.56974275 Q 6.69042628857422 0.5416425 6.79875478857422 0.5416425 Q 6.8411087885742194 0.5416425 6.88020478857422 0.5481585 Q 6.91930078857422 0.5546745 6.94903003857422 0.563634 Q 6.97875928857422 0.5725935 6.99179128857422 0.5807385 Q 6.99097678857422 0.5595615 6.98323903857422 0.535941 Q 6.97550128857422 0.5123205 6.9616547885742195 0.49603050000000004 Q 6.93721978857422 0.46263600000000005 6.89527303857422 0.44023725 Q 6.85332628857422 0.4178385 6.78490828857422 0.4178385 Q 6.71567578857422 0.4178385 6.66273328857422 0.44919675000000003 Q 6.6097907885742195 0.48055500000000007 6.58209778857422 0.519651 L 6.38335978857422 0.3917745 Q 6.4200122885742195 0.33964649999999996 6.48232153857422 0.30055050000000005 Q 6.54463078857422 0.26145450000000003 6.6240445385742195 0.23946299999999998 Q 6.70345828857422 0.21747150000000004 6.79060978857422 0.21747150000000004 Q 6.93477628857422 0.21747150000000004 7.02437128857422 0.2647125 Q 7.11396628857422 0.3119535 7.15713478857422 0.3966615 Q 7.177497288574219 0.4373865 7.19052928857422 0.4862565 Q 7.20356128857422 0.5351265000000001 7.208448288574219 0.5986575000000001 Q 7.21170628857422 0.6532290000000001 7.2133352885742195 0.70047 Q 7.21496428857422 0.747711 7.21659328857422 0.790065 Q 7.2182222885742195 0.851967 7.23043978857422 0.8707005 Q 7.24265728857422 0.8894340000000001 7.26546328857422 0.8894340000000001 Q 7.28664028857422 0.8894340000000001 7.30333753857422 0.87762375 Q 7.32003478857422 0.8658135 7.32492178857422 0.8462655 L 7.40962978857422 1.008351 Q 7.4006702885742195 1.045818 7.35913078857422 1.0710675 Q 7.31759128857422 1.096317 7.25406028857422 1.096317 Q 7.20763378857422 1.096317 7.16609428857422 1.08043425 Q 7.12455478857422 1.0645515 7.0976762885742195 1.03726575 Q 7.07079778857422 1.00998 7.06591078857422 0.9749565 Q 7.05287878857422 1.0059075 7.01133928857422 1.03563675 Q 6.969799788574219 1.065366 6.90463978857422 1.08450675 Q 6.83947978857422 1.1036475000000001 6.75232828857422 1.1036475000000001 M 6.80689978857422 0.91224 Q 6.84518128857422 0.91224 6.88549903857422 0.90042975 Q 6.9258167885742195 0.8886195 6.95880403857422 0.8707005 Q 6.99179128857422 0.8527815000000001 7.00971028857422 0.834048 Q 7.008081288574219 0.8087985 7.00685953857422 0.78192 Q 7.005637788574219 0.7550415 7.00645228857422 0.736308 Q 6.98853328857422 0.7289775000000001 6.93844153857422 0.72042525 Q 6.88834978857422 0.711873 6.833778288574219 0.711873 Q 6.78409378857422 0.711873 6.7409252885742195 0.7224615000000001 Q 6.69775678857422 0.73305 6.670471038574219 0.7550415 Q 6.6431852885742195 0.7770330000000001 6.6431852885742195 0.8120565 Q 6.6431852885742195 0.8495235 6.66354778857422 0.871515 Q 6.68391028857422 0.8935065 6.720562788574219 0.9028732500000001 Q 6.75721528857422 0.91224 6.80689978857422 0.91224" fill="#114b1e" fill-rule="nonzero"></path></g><g></g></g><defs><clipPath id="SvgjsClipPath96606"><path d=" M 7.71674658203125 -0.21565831113430156 h 1.5146162513707009 v 1.5211176222686031 h -1.5146162513707009 Z"></path></clipPath><clipPath id="SvgjsClipPath9660478719178-7e78-4173-bbc4-0566dad9c053"><path d=" M 7.71674658203125 -0.21565831113430156 L 9.23136283340195 -0.21565831113430156 L 9.23136283340195 1.3054593111343016 L 7.71674658203125 1.3054593111343016 Z"></path></clipPath></defs></svg>